<svg width="800" height="800" viewBox="0 0 800 800" fill="none" xmlns="http://www.w3.org/2000/svg">
<rect width="800" height="800" fill="#132575"/>
<path d="M560 69L290.653 253.761L277.653 262.679C257.485 278.905 243.548 302.568 240 329.507V400.723L472.791 241.038L560 181.216V69Z" fill="white"/>
<path d="M527.251 534.958C544.763 518.973 556.748 497.03 560 472.332V402.216L328.097 560.928L240 621.359V732L503.675 551.13L527.251 534.958Z" fill="white"/>
<path d="M560 329.507C555.308 293.876 532.44 263.976 501.019 249.434L240 428.516V472.332C244.735 508.283 267.972 538.4 299.829 552.793L560 374.369V329.507Z" fill="white"/>
</svg>
