<svg width="227" height="43" viewBox="0 0 227 43" fill="none" xmlns="http://www.w3.org/2000/svg">
<path d="M58.1689 23.78C58.1689 23.4701 57.961 23.2822 57.5453 23.2163C57.1354 23.1504 56.1451 23.1174 54.5747 23.1174H50.2617C49.3032 23.1174 48.4602 23.0218 47.7327 22.8307C47.0053 22.6395 46.4394 22.3988 46.0353 22.1088C45.6369 21.8187 45.2731 21.4133 44.944 20.8925C44.6207 20.3651 44.459 19.6926 44.459 18.8752C44.459 18.4005 44.4965 17.9687 44.5716 17.5797C44.6524 17.1908 44.8141 16.782 45.0566 16.3535C45.2991 15.9184 45.6224 15.5492 46.0266 15.246C46.4365 14.9427 47.0024 14.6922 47.7241 14.4944C48.4458 14.2967 49.2917 14.1978 50.2617 14.1978H56.965C58.8357 14.1978 60.0511 14.5241 60.6112 15.1768C61.1712 15.8228 61.5465 16.4096 61.7371 16.937C61.9276 17.4644 62.0748 18.1203 62.1787 18.9048H57.9437C57.7993 18.5686 57.6059 18.3346 57.3634 18.2027C57.1209 18.0709 56.6619 18.0049 55.9864 18.0049H52.3142C50.7669 18.0049 49.7796 18.0478 49.3523 18.1335C48.9308 18.2126 48.7201 18.4335 48.7201 18.796C48.7201 19.1059 48.925 19.2971 49.335 19.3696C49.7507 19.4355 50.7438 19.4685 52.3142 19.4685H56.6273C57.5857 19.4685 58.4287 19.5641 59.1562 19.7553C59.8837 19.9398 60.4466 20.1772 60.845 20.4672C61.2492 20.7573 61.6129 21.166 61.9363 21.6934C62.2654 22.2143 62.4299 22.8834 62.4299 23.7009C62.4299 24.1755 62.3895 24.6073 62.3087 24.9963C62.2336 25.3852 61.9334 26.0478 61.408 26.9839C60.8883 27.9135 59.2947 28.3782 56.6273 28.3782H49.2137C47.3372 28.3782 46.119 28.0552 45.5589 27.4091C45.0046 26.7565 44.6322 26.1698 44.4417 25.6489C44.2512 25.1215 44.1039 24.4656 44 23.6811H48.2351C48.3794 24.0173 48.5728 24.2513 48.8153 24.3832C49.0578 24.5084 49.5168 24.5711 50.1924 24.5711H54.5747C56.1221 24.5711 57.1065 24.5315 57.528 24.4524C57.9552 24.3667 58.1689 24.1426 58.1689 23.78Z" fill="white"/>
<path d="M64.1101 28.3782V14.1978H68.3711V28.3782H64.1101Z" fill="white"/>
<path d="M74.858 14.1978L79.0844 18.3906L83.3021 14.1978H89.1741L82.029 21.3078L89.1741 28.3782H83.2675L79.0844 24.225L74.8926 28.3782H68.986L76.1398 21.3078L68.986 14.1978H74.858Z" fill="white"/>
<path d="M101.334 21.3276C101.334 22.3824 101.599 23.2262 102.13 23.8591C102.662 24.4854 103.597 24.7985 104.936 24.7985H108.609C110.427 24.7985 111.55 24.1557 111.978 22.8702H116.377C116.129 24.5711 115.442 25.9489 114.316 27.0037C113.196 28.0519 111.617 28.576 109.579 28.576H103.941C102.722 28.576 101.66 28.3848 100.753 28.0025C99.8527 27.6201 99.0126 26.9345 98.2331 25.9456C97.4594 24.9501 97.0726 23.4174 97.0726 21.3473C97.0726 18.7367 97.7337 16.8611 99.0559 15.7206C100.384 14.5735 102.012 14 103.941 14H109.579C111.542 14 113.086 14.5175 114.212 15.5525C115.344 16.581 116.054 17.9127 116.343 19.5476H111.891C111.406 18.3873 110.312 17.8072 108.609 17.8072H104.936C102.535 17.8072 101.334 18.9806 101.334 21.3276Z" fill="white"/>
<path d="M117.815 24.1162C117.567 23.2724 117.442 22.3461 117.442 21.3375C117.442 20.3222 117.567 19.3894 117.815 18.5389C118.063 17.6885 118.45 16.9172 118.975 16.225C119.507 15.5262 120.223 14.9823 121.123 14.5933C122.03 14.1978 123.092 14 124.31 14H130.659C131.854 14 132.908 14.2011 133.82 14.6032C134.738 14.9988 135.462 15.5459 135.994 16.2447C136.531 16.937 136.929 17.7083 137.189 18.5587C137.449 19.4091 137.579 20.3354 137.579 21.3375C137.579 22.3329 137.449 23.2526 137.189 24.0964C136.929 24.9403 136.528 25.705 135.985 26.3906C135.448 27.0696 134.726 27.6036 133.82 27.9926C132.919 28.3815 131.865 28.576 130.659 28.576H124.31C123.092 28.576 122.03 28.3848 121.123 28.0025C120.223 27.6201 119.507 27.0894 118.975 26.4104C118.45 25.7248 118.063 24.96 117.815 24.1162ZM121.704 21.3078C121.704 22.3626 121.969 23.2097 122.5 23.8492C123.032 24.4821 123.967 24.7985 125.306 24.7985H129.689C132.114 24.7985 133.323 23.6349 133.318 21.3078C133.318 18.974 132.108 17.8072 129.689 17.8072H125.306C122.904 17.8072 121.704 18.974 121.704 21.3078Z" fill="white"/>
<path d="M139.354 28.3782V14.1978H151.618C152.824 14.1978 153.878 14.389 154.779 14.7713C155.685 15.1471 156.537 15.8327 157.334 16.8282C158.13 17.8171 158.529 19.3333 158.529 21.377C158.529 23.4207 157.96 25.0985 156.823 26.4104C155.691 27.7223 153.956 28.3782 151.618 28.3782H139.354ZM150.639 18.0049H143.615V24.5909H150.639C153.064 24.5909 154.276 23.4932 154.276 21.2979C154.276 19.1026 153.064 18.0049 150.639 18.0049Z" fill="white"/>
<path d="M177.591 18.0544H164.557V19.4685H176.491V23.1174H164.557V24.5315H177.591V28.3782H160.296V14.1978H177.591V18.0544Z" fill="white"/>
<path d="M179.28 28.3782V14.1978H192.037C195.184 14.1978 196.757 15.4471 196.757 17.9456C196.757 18.7301 196.595 19.4718 196.272 20.1706C195.954 20.8628 195.464 21.3309 194.8 21.5748C195.464 21.9242 195.963 22.3296 196.298 22.7911C196.639 23.246 196.841 23.7108 196.904 24.1854C196.968 24.6601 197.005 25.3127 197.017 26.1434C197.028 26.974 197.282 27.719 197.779 28.3782H193.561C193.324 28.3123 193.16 28.1145 193.067 27.7849C192.981 27.4487 192.923 27.0696 192.894 26.6477C192.865 26.2192 192.811 25.8006 192.73 25.3918C192.655 24.9765 192.47 24.6271 192.175 24.3436C191.881 24.0602 191.468 23.9184 190.937 23.9184H183.593V28.3782H179.28ZM183.593 18.0544V20.4771H191.076C191.584 20.4771 191.956 20.3914 192.193 20.22C192.429 20.042 192.548 19.7157 192.548 19.241C192.548 18.7664 192.415 18.4499 192.149 18.2917C191.884 18.1335 191.503 18.0544 191.006 18.0544H183.593Z" fill="white"/>
<path d="M212.311 23.78C212.311 23.4701 212.104 23.2822 211.688 23.2163C211.278 23.1504 210.288 23.1174 208.717 23.1174H204.404C203.446 23.1174 202.603 23.0218 201.875 22.8307C201.148 22.6395 200.582 22.3988 200.178 22.1088C199.78 21.8187 199.416 21.4133 199.087 20.8925C198.763 20.3651 198.602 19.6926 198.602 18.8752C198.602 18.4005 198.639 17.9687 198.714 17.5797C198.795 17.1908 198.957 16.782 199.199 16.3535C199.442 15.9184 199.765 15.5492 200.169 15.246C200.579 14.9427 201.145 14.6922 201.867 14.4944C202.588 14.2967 203.434 14.1978 204.404 14.1978H211.108C212.978 14.1978 214.194 14.5241 214.754 15.1768C215.314 15.8228 215.689 16.4096 215.88 16.937C216.07 17.4644 216.217 18.1203 216.321 18.9048H212.086C211.942 18.5686 211.749 18.3346 211.506 18.2027C211.264 18.0709 210.805 18.0049 210.129 18.0049H206.457C204.91 18.0049 203.922 18.0478 203.495 18.1335C203.073 18.2126 202.863 18.4335 202.863 18.796C202.863 19.1059 203.068 19.2971 203.478 19.3696C203.893 19.4355 204.886 19.4685 206.457 19.4685H210.77C211.728 19.4685 212.571 19.5641 213.299 19.7553C214.026 19.9398 214.589 20.1772 214.988 20.4672C215.392 20.7573 215.756 21.166 216.079 21.6934C216.408 22.2143 216.573 22.8834 216.573 23.7009C216.573 24.1755 216.532 24.6073 216.451 24.9963C216.376 25.3852 216.076 26.0478 215.551 26.9839C215.031 27.9135 213.437 28.3782 210.77 28.3782H203.356C201.48 28.3782 200.262 28.0552 199.702 27.4091C199.147 26.7565 198.775 26.1698 198.584 25.6489C198.394 25.1215 198.247 24.4656 198.143 23.6811H202.378C202.522 24.0173 202.715 24.2513 202.958 24.3832C203.2 24.5084 203.659 24.5711 204.335 24.5711H208.717C210.265 24.5711 211.249 24.5315 211.671 24.4524C212.098 24.3667 212.311 24.1426 212.311 23.78Z" fill="white"/>
<path d="M217.014 30V26.7763H227V30H217.014Z" fill="white"/>
<path d="M20 0L2.3533 12.5614C1.0928 13.6138 0.221734 15.1485 0 16.8956V21.5145L20 7.27796V0Z" fill="white"/>
<path d="M17.9532 30.2205C19.0477 29.1838 19.7967 27.7606 20 26.1588V21.6113L5.50608 31.9048L0 35.8242V43L17.9532 30.2205Z" fill="white"/>
<path d="M20 16.8956C19.7067 14.5847 18.2775 12.6455 16.3137 11.7024L0 23.317V26.1588C0.295906 28.4905 1.74826 30.4437 3.73932 31.3773L20 19.8052V16.8956Z" fill="white"/>
</svg>
