<svg width="25" height="53" viewBox="0 0 25 53" fill="none" xmlns="http://www.w3.org/2000/svg">
<path d="M25 0L3.95728 14.7697L2.94162 15.4826C1.366 16.7797 0.277167 18.6714 0 20.8249L0 26.5178L18.1868 13.7526L25 8.97051V0Z" fill="black"/>
<path d="M22.4415 37.2485C23.8096 35.9707 24.7459 34.2165 25 32.2423V26.6372L6.8826 39.3246L0 44.1554L0 53L20.5996 38.5413L22.4415 37.2485Z" fill="black"/>
<path d="M25 20.8249C24.6334 17.9765 22.8469 15.5863 20.3921 14.4238L0 28.7396L0 32.2423C0.369883 35.1162 2.18532 37.5237 4.67416 38.6743L25 24.4111V20.8249Z" fill="black"/>
</svg>
